<svg xmlns="http://www.w3.org/2000/svg" xmlns:xlink="http://www.w3.org/1999/xlink" width="198pt" height="409pt" viewBox="0.00 0.00 198.00 408.80">
<g id="graph0" class="graph" transform="scale(1 1) rotate(0) translate(4 404.8)">
<title>G</title>
<polygon fill="white" stroke="none" points="-4,4 -4,-404.8 194,-404.8 194,4 -4,4"/>
<g id="clust1" class="cluster">
<title>cluster__VerifyUser</title>
<polygon fill="none" stroke="black" points="8,-136 8,-356.8 182,-356.8 182,-136 8,-136"/>
<text text-anchor="middle" x="95" y="-340.2" font-family="Times,serif" font-size="14.00">subgraph: VerifyUser</text>
</g>
<!-- VerifyUser_CheckUser -->
<g id="node1" class="node">
<title>VerifyUser_CheckUser</title>
<ellipse fill="none" stroke="black" cx="95" cy="-306" rx="53.94" ry="18"/>
<text text-anchor="middle" x="95" y="-301.8" font-family="Times,serif" font-size="14.00">CheckUser</text>
</g>
<!-- VerifyUser_SendEmail -->
<g id="node2" class="node">
<title>VerifyUser_SendEmail</title>
<ellipse fill="none" stroke="black" cx="95" cy="-234" rx="53.41" ry="18"/>
<text text-anchor="middle" x="95" y="-229.8" font-family="Times,serif" font-size="14.00">SendEmail</text>
</g>
<!-- VerifyUser_CheckUser&#45;&gt;VerifyUser_SendEmail -->
<g id="edge1" class="edge">
<title>VerifyUser_CheckUser-&gt;VerifyUser_SendEmail</title>
<path fill="none" stroke="black" d="M95,-287.7C95,-280.41 95,-271.73 95,-263.54"/>
<polygon fill="black" stroke="black" points="98.5,-263.62 95,-253.62 91.5,-263.62 98.5,-263.62"/>
</g>
<!-- VerifyUser_END -->
<g id="node3" class="node">
<title>VerifyUser_END</title>
<ellipse fill="none" stroke="black" cx="95" cy="-162" rx="79.15" ry="18"/>
<text text-anchor="middle" x="95" y="-157.8" font-family="Times,serif" font-size="14.00">VerifyUser_END</text>
</g>
<!-- VerifyUser_SendEmail&#45;&gt;VerifyUser_END -->
<g id="edge2" class="edge">
<title>VerifyUser_SendEmail-&gt;VerifyUser_END</title>
<path fill="none" stroke="black" d="M95,-215.7C95,-208.41 95,-199.73 95,-191.54"/>
<polygon fill="black" stroke="black" points="98.5,-191.62 95,-181.62 91.5,-191.62 98.5,-191.62"/>
</g>
<!-- C -->
<g id="node5" class="node">
<title>C</title>
<ellipse fill="none" stroke="black" cx="95" cy="-90" rx="27" ry="18"/>
<text text-anchor="middle" x="95" y="-85.8" font-family="Times,serif" font-size="14.00">C</text>
</g>
<!-- VerifyUser_END&#45;&gt;C -->
<g id="edge3" class="edge">
<title>VerifyUser_END-&gt;C</title>
<path fill="none" stroke="black" d="M95,-143.7C95,-136.41 95,-127.73 95,-119.54"/>
<polygon fill="black" stroke="black" points="98.5,-119.62 95,-109.62 91.5,-119.62 98.5,-119.62"/>
</g>
<!-- A -->
<g id="node4" class="node">
<title>A</title>
<ellipse fill="none" stroke="black" cx="95" cy="-382.8" rx="27" ry="18"/>
<text text-anchor="middle" x="95" y="-378.6" font-family="Times,serif" font-size="14.00">A</text>
</g>
<!-- A&#45;&gt;VerifyUser_CheckUser -->
<g id="edge4" class="edge">
<title>A-&gt;VerifyUser_CheckUser</title>
<path fill="none" stroke="black" d="M95,-364.45C95,-355.86 95,-345.27 95,-335.52"/>
<polygon fill="black" stroke="black" points="98.5,-335.77 95,-325.77 91.5,-335.77 98.5,-335.77"/>
</g>
<!-- END -->
<g id="node6" class="node">
<title>END</title>
<ellipse fill="none" stroke="black" cx="95" cy="-18" rx="30.88" ry="18"/>
<text text-anchor="middle" x="95" y="-13.8" font-family="Times,serif" font-size="14.00">END</text>
</g>
<!-- C&#45;&gt;END -->
<g id="edge5" class="edge">
<title>C-&gt;END</title>
<path fill="none" stroke="black" d="M95,-71.7C95,-64.41 95,-55.73 95,-47.54"/>
<polygon fill="black" stroke="black" points="98.5,-47.62 95,-37.62 91.5,-47.62 98.5,-47.62"/>
</g>
</g>
</svg>